<?xml version="1.0"?>
<!--Icons from directory ""-->
<svg xmlns="http://www.w3.org/2000/svg" width="27" height="138" viewBox="0 0 27 138"><svg xmlns:xlink="http://www.w3.org/1999/xlink" height="23" width="27" version="1.1" viewBox="0 0 27 23" id="checkbox-off-disabled" y="0"><title>Artboard</title><desc>Created with Sketch.</desc><g id="checkbox-off-disabled-Page-1" fill-rule="evenodd" fill="none"><g id="checkbox-off-disabled-Artboard" fill-rule="nonzero" fill="#EDEDED"><g id="checkbox-off-disabled-checkbox-on"><path id="checkbox-off-disabled-Shape" d="m20 2c0.542 0 1 0.458 1 1v17c0 0.542-0.458 1-1 1h-17c-0.542 0-1-0.458-1-1v-17c0-0.542 0.458-1 1-1h17zm0-2h-17c-1.65 0-3 1.35-3 3v17c0 1.65 1.35 3 3 3h17c1.65 0 3-1.35 3-3v-17c0-1.65-1.35-3-3-3z"/></g></g></g></svg><svg xmlns:xlink="http://www.w3.org/1999/xlink" height="23" width="27" version="1.1" viewBox="0 0 27 23" id="checkbox-off-gray" y="23"><title>Artboard</title><desc>Created with Sketch.</desc><g id="checkbox-off-gray-Page-1" fill-rule="evenodd" fill="none"><g id="checkbox-off-gray-Artboard" fill-rule="nonzero" fill="#B8B8B8"><g id="checkbox-off-gray-checkbox-on"><path id="checkbox-off-gray-Shape" d="m20 2c0.542 0 1 0.458 1 1v17c0 0.542-0.458 1-1 1h-17c-0.542 0-1-0.458-1-1v-17c0-0.542 0.458-1 1-1h17zm0-2h-17c-1.65 0-3 1.35-3 3v17c0 1.65 1.35 3 3 3h17c1.65 0 3-1.35 3-3v-17c0-1.65-1.35-3-3-3z"/></g></g></g></svg><svg xmlns:xlink="http://www.w3.org/1999/xlink" height="23" width="27" version="1.1" viewBox="0 0 27 23" id="checkbox-off" y="46"><title>Artboard</title><desc>Created with Sketch.</desc><g id="checkbox-off-Page-1" fill-rule="evenodd" fill="none"><g id="checkbox-off-Artboard" fill-rule="nonzero" fill="#000"><g id="checkbox-off-checkbox-on"><path id="checkbox-off-Shape" d="m20 2c0.542 0 1 0.458 1 1v17c0 0.542-0.458 1-1 1h-17c-0.542 0-1-0.458-1-1v-17c0-0.542 0.458-1 1-1h17zm0-2h-17c-1.65 0-3 1.35-3 3v17c0 1.65 1.35 3 3 3h17c1.65 0 3-1.35 3-3v-17c0-1.65-1.35-3-3-3z"/></g></g></g></svg><svg xmlns:xlink="http://www.w3.org/1999/xlink" height="23" width="27" version="1.1" viewBox="0 0 27 23" id="checkbox-on-disabled" y="69"><title>Artboard</title><desc>Created with Sketch.</desc><g id="checkbox-on-disabled-Page-1" fill-rule="evenodd" fill="none"><g id="checkbox-on-disabled-Artboard"><g id="checkbox-on-disabled-checkbox-on"><path id="checkbox-on-disabled-Shape" fill-rule="nonzero" fill="#EDEDED" d="m20 2c0.542 0 1 0.458 1 1v17c0 0.542-0.458 1-1 1h-17c-0.542 0-1-0.458-1-1v-17c0-0.542 0.458-1 1-1h17zm0-2h-17c-1.65 0-3 1.35-3 3v17c0 1.65 1.35 3 3 3h17c1.65 0 3-1.35 3-3v-17c0-1.65-1.35-3-3-3z"/><g id="checkbox-on-disabled-Path-2" transform="translate(4)"><g id="checkbox-on-disabled-path-1-link" fill="#EDEDED" transform="translate(1 1)"><polygon id="checkbox-on-disabled-path-1" points="2.7676 6.5946 0 9.5691 7.5718 16.759 21.011 2.7926 18.311 0 7.8071 11.238"/></g><polygon id="checkbox-on-disabled-Shape" stroke="#fff" points="8.7808 11.534 19.305 0.2743 22.705 3.7918 8.5877 18.464 0.2968 10.591 3.7405 6.8897"/></g></g></g></g></svg><svg xmlns:xlink="http://www.w3.org/1999/xlink" height="23" width="27" version="1.1" viewBox="0 0 27 23" id="checkbox-on-gray" y="92"><title>Artboard</title><desc>Created with Sketch.</desc><g id="checkbox-on-gray-Page-1" fill-rule="evenodd" fill="none"><g id="checkbox-on-gray-Artboard"><g id="checkbox-on-gray-checkbox-on"><path id="checkbox-on-gray-Shape" fill-rule="nonzero" fill="#B8B8B8" d="m20 2c0.542 0 1 0.458 1 1v17c0 0.542-0.458 1-1 1h-17c-0.542 0-1-0.458-1-1v-17c0-0.542 0.458-1 1-1h17zm0-2h-17c-1.65 0-3 1.35-3 3v17c0 1.65 1.35 3 3 3h17c1.65 0 3-1.35 3-3v-17c0-1.65-1.35-3-3-3z"/><g id="checkbox-on-gray-Path-2" transform="translate(4)"><g id="checkbox-on-gray-path-1-link" fill="#B8B8B8" transform="translate(1 1)"><polygon id="checkbox-on-gray-path-1" points="2.7676 6.5946 0 9.5691 7.5718 16.759 21.011 2.7926 18.311 0 7.8071 11.238"/></g><polygon id="checkbox-on-gray-Shape" stroke="#fff" points="8.7808 11.534 19.305 0.2743 22.705 3.7918 8.5877 18.464 0.2968 10.591 3.7405 6.8897"/></g></g></g></g></svg><svg xmlns:xlink="http://www.w3.org/1999/xlink" height="23" width="27" version="1.1" viewBox="0 0 27 23" id="checkbox-on" y="115"><title>Artboard</title><desc>Created with Sketch.</desc><g id="checkbox-on-Page-1" fill-rule="evenodd" fill="none"><g id="checkbox-on-Artboard"><g id="checkbox-on-checkbox-on"><path id="checkbox-on-Shape" fill-rule="nonzero" fill="#000" d="m20 2c0.542 0 1 0.458 1 1v17c0 0.542-0.458 1-1 1h-17c-0.542 0-1-0.458-1-1v-17c0-0.542 0.458-1 1-1h17zm0-2h-17c-1.65 0-3 1.35-3 3v17c0 1.65 1.35 3 3 3h17c1.65 0 3-1.35 3-3v-17c0-1.65-1.35-3-3-3z"/><g id="checkbox-on-Path-2" transform="translate(4)"><g id="checkbox-on-path-1-link" fill="#000" transform="translate(1 1)"><polygon id="checkbox-on-path-1" points="2.7676 6.5946 0 9.5691 7.5718 16.759 21.011 2.7926 18.311 0 7.8071 11.238"/></g><polygon id="checkbox-on-Shape" stroke="#fff" points="8.7808 11.534 19.305 0.2743 22.705 3.7918 8.5877 18.464 0.2968 10.591 3.7405 6.8897"/></g></g></g></g></svg></svg>
