<?xml version="1.0" encoding="UTF-8"?>
<svg width="27px" height="23px" viewBox="0 0 27 23" version="1.1" xmlns="http://www.w3.org/2000/svg" xmlns:xlink="http://www.w3.org/1999/xlink">
    <!-- Generator: Sketch 48.1 (47250) - http://www.bohemiancoding.com/sketch -->
    <title>Artboard</title>
    <desc>Created with Sketch.</desc>
    <defs></defs>
    <g id="Page-1" stroke="none" stroke-width="1" fill="none" fill-rule="evenodd">
        <g id="Artboard">
            <g id="checkbox-on">
                <path d="M20,2 C20.542,2 21,2.458 21,3 L21,20 C21,20.542 20.542,21 20,21 L3,21 C2.458,21 2,20.542 2,20 L2,3 C2,2.458 2.458,2 3,2 L20,2 Z M20,0 L3,0 C1.35,0 0,1.35 0,3 L0,20 C0,21.65 1.35,23 3,23 L20,23 C21.65,23 23,21.65 23,20 L23,3 C23,1.35 21.65,0 20,0 Z" id="Shape" fill="#EDEDED" fill-rule="nonzero"></path>
                <g id="Path-2" transform="translate(4.000000, 0.000000)">
                    <g id="path-1-link" transform="translate(1.000000, 1.000000)" fill="#EDEDED">
                        <polygon id="path-1" points="2.76757812 6.59460449 0 9.5690918 7.5717773 16.7592773 21.0106201 2.79260254 18.310791 0 7.8071289 11.2382812"></polygon>
                    </g>
                    <polygon id="Shape" stroke="#FFFFFF" points="8.7808405 11.5341565 19.3046639 0.274303928 22.7052854 3.79178 8.5876696 18.4638878 0.29679967 10.5908495 3.74046987 6.88972426"></polygon>
                </g>
            </g>
        </g>
    </g>
</svg>