<?xml version="1.0"?>
<!--Icons from directory ""-->
<svg xmlns="http://www.w3.org/2000/svg" width="25" height="150" viewBox="0 0 25 150"><svg xmlns:xlink="http://www.w3.org/1999/xlink" height="25" width="25" version="1.1" viewBox="0 0 25 25" id="radio-off-black" y="0"><title>Artboard</title><desc>Created with Sketch.</desc><g id="radio-off-black-Page-1" fill-rule="evenodd" fill="none"><g id="radio-off-black-radio-off" fill-rule="nonzero" fill="#000"><path id="radio-off-black-Shape" d="m12.5 4c4.687 0 8.5 3.813 8.5 8.5s-3.813 8.5-8.5 8.5-8.5-3.813-8.5-8.5 3.813-8.5 8.5-8.5zm0-4c-6.903 0-12.5 5.597-12.5 12.5s5.597 12.5 12.5 12.5 12.5-5.597 12.5-12.5-5.597-12.5-12.5-12.5z"/></g></g></svg><svg xmlns:xlink="http://www.w3.org/1999/xlink" height="25" width="25" version="1.1" viewBox="0 0 25 25" id="radio-off-disabled" y="25"><title>Artboard</title><desc>Created with Sketch.</desc><g id="radio-off-disabled-Page-1" fill-rule="evenodd" fill="none"><g id="radio-off-disabled-Artboard" fill-rule="nonzero" fill="#EDEDED"><g id="radio-off-disabled-radio-on"><path id="radio-off-disabled-Shape" d="m12.5 4c4.687 0 8.5 3.813 8.5 8.5s-3.813 8.5-8.5 8.5-8.5-3.813-8.5-8.5 3.813-8.5 8.5-8.5zm0-4c-6.903 0-12.5 5.597-12.5 12.5s5.597 12.5 12.5 12.5 12.5-5.597 12.5-12.5-5.597-12.5-12.5-12.5z"/></g></g></g></svg><svg width="25" viewBox="0 0 25 25" height="25" id="radio-off" y="50"><path d="m12.5 4c4.687 0 8.5 3.813 8.5 8.5s-3.813 8.5-8.5 8.5-8.5-3.813-8.5-8.5 3.813-8.5 8.5-8.5m0-4c-6.903 0-12.5 5.597-12.5 12.5s5.597 12.5 12.5 12.5 12.5-5.597 12.5-12.5-5.597-12.5-12.5-12.5z" fill="#a6a6a6"/></svg><svg xmlns:xlink="http://www.w3.org/1999/xlink" height="25" width="25" version="1.1" viewBox="0 0 25 25" id="radio-on-black" y="75"><title>Artboard</title><desc>Created with Sketch.</desc><g id="radio-on-black-Page-1" fill-rule="evenodd" fill="none"><g id="radio-on-black-Artboard" fill-rule="nonzero" fill="#000"><g id="radio-on-black-radio-on"><path id="radio-on-black-Shape" d="m12.5 4c4.687 0 8.5 3.813 8.5 8.5s-3.813 8.5-8.5 8.5-8.5-3.813-8.5-8.5 3.813-8.5 8.5-8.5zm0-4c-6.903 0-12.5 5.597-12.5 12.5s5.597 12.5 12.5 12.5 12.5-5.597 12.5-12.5-5.597-12.5-12.5-12.5z"/><circle id="radio-on-black-Oval" cy="12.5" cx="12.5" r="4.5"/></g></g></g></svg><svg xmlns:xlink="http://www.w3.org/1999/xlink" height="25" width="25" version="1.1" viewBox="0 0 25 25" id="radio-on-disabled" y="100"><title>Artboard</title><desc>Created with Sketch.</desc><g id="radio-on-disabled-Page-1" fill-rule="evenodd" fill="none"><g id="radio-on-disabled-Artboard" fill-rule="nonzero" fill="#EDEDED"><g id="radio-on-disabled-radio-on"><path id="radio-on-disabled-Shape" d="m12.5 4c4.687 0 8.5 3.813 8.5 8.5s-3.813 8.5-8.5 8.5-8.5-3.813-8.5-8.5 3.813-8.5 8.5-8.5zm0-4c-6.903 0-12.5 5.597-12.5 12.5s5.597 12.5 12.5 12.5 12.5-5.597 12.5-12.5-5.597-12.5-12.5-12.5z"/><circle id="radio-on-disabled-Oval" cy="12.5" cx="12.5" r="4.5"/></g></g></g></svg><svg width="25" viewBox="0 0 25 25" height="25" id="radio-on" y="125"><path d="m12.5 4c4.687 0 8.5 3.813 8.5 8.5s-3.813 8.5-8.5 8.5-8.5-3.813-8.5-8.5 3.813-8.5 8.5-8.5m0-4c-6.903 0-12.5 5.597-12.5 12.5s5.597 12.5 12.5 12.5 12.5-5.597 12.5-12.5-5.597-12.5-12.5-12.5z" fill="#a6a6a6"/><circle cy="12.5" cx="12.5" r="4.5" fill="#a6a6a6"/></svg></svg>
